<?xml version="1.0" encoding="UTF-8"?>
<svg width="200" height="58.496" version="1.1" viewBox="0 0 200 58.496" xmlns="http://www.w3.org/2000/svg">
 <g transform="matrix(1.0981 0 0 1.0981 -11.363 -2.7657)">
  <g transform="matrix(.70143 0 0 .70143 3.8237 -10.6)" fill="#66c072" fill-rule="evenodd" stroke-width="1.2983">
   <path d="m22.115 44.874v46.131h-12.814l-2e-7 -58.946h38.443v12.814"/>
   <path d="m47.744 44.874h12.814v46.131h-12.814z"/>
  </g>
  <g stroke-width=".24095" aria-label="chat">
   <path d="m82.203 29.191h6.4659q-0.36738-3.3799-1.7634-5.8047-1.3961-2.4982-3.6004-4.1147-2.1308-1.6165-4.9964-2.3513-2.7921-0.80824-6.0251-0.80824-4.4821 0-7.862 1.6165-3.3799 1.543-5.6577 4.3351-2.2043 2.7186-3.3064 6.4659-1.1021 3.6738-1.1021 7.9355t1.1021 7.862q1.1756 3.5269 3.3799 6.0986 2.2778 2.5717 5.5842 3.9677 3.3799 1.3961 7.715 1.3961 7.2742 0 11.462-3.8208 4.2616-3.8208 5.2903-10.875h-6.3925q-0.58781 4.4086-3.233 6.8333-2.5717 2.4247-7.2007 2.4247-2.9391 0-5.0699-1.1756-2.1308-1.1756-3.4534-3.086-1.3226-1.9839-1.9839-4.4821-0.58781-2.4982-0.58781-5.1434 0-2.8656 0.58781-5.5107 0.58781-2.7186 1.9104-4.776 1.3961-2.0573 3.6738-3.3064 2.2778-1.2491 5.6577-1.2491 3.9677 0 6.319 1.9839 2.3513 1.9839 3.086 5.5842z"/>
   <path d="m95.878 2.5186v52.462h6.2455v-21.455q0-2.5717 0.66129-4.7025 0.73477-2.2043 2.1308-3.8208 1.3961-1.6165 3.4534-2.4982 2.1308-0.88172 4.9964-0.88172 3.6004 0 5.6577 2.0573 2.0573 2.0573 2.0573 5.5842v25.717h6.2455v-24.982q0-3.086-0.66129-5.5842-0.58781-2.5717-2.1308-4.4086t-4.0412-2.8656q-2.4982-1.0287-6.2455-1.0287-1.69 0-3.5269 0.36738-1.7634 0.36738-3.4534 1.1756-1.6165 0.73477-2.9391 1.9839-1.3226 1.1756-2.0574 2.9391h-0.14695v-20.059z"/>
   <path d="m170.43 54.834q-1.6165 0.9552-4.4821 0.9552-2.4247 0-3.8943-1.3226-1.3961-1.3961-1.3961-4.4821-2.5717 3.086-6.0251 4.4821-3.3799 1.3226-7.3477 1.3226-2.5717 0-4.9229-0.58781-2.2778-0.58781-3.9677-1.8369t-2.7186-3.233q-0.9552-2.0573-0.9552-4.9229 0-3.233 1.1022-5.2903t2.8656-3.3064q1.8369-1.3226 4.1147-1.9839 2.3512-0.66129 4.776-1.1021 2.5717-0.51434 4.8494-0.73477 2.3512-0.29391 4.1147-0.73477 1.7634-0.51434 2.7921-1.3961 1.0287-0.9552 1.0287-2.7186 0-2.0573-0.80824-3.3064-0.73476-1.2491-1.9839-1.9104-1.1756-0.66129-2.7186-0.88172-1.4695-0.22043-2.9391-0.22043-3.9677 0-6.6129 1.543-2.6452 1.4695-2.8656 5.6577h-6.2455q0.14696-3.5269 1.4695-5.9516 1.3226-2.4247 3.5269-3.8943 2.2043-1.543 4.9964-2.2043 2.8656-0.66129 6.0986-0.66129 2.5717 0 5.0699 0.36738 2.5717 0.36738 4.629 1.543 2.0573 1.1021 3.3064 3.1595 1.2491 2.0573 1.2491 5.3638v19.545q0 2.2043 0.22043 3.233 0.2939 1.0287 1.7634 1.0287 0.80824 0 1.9104-0.36738zm-10.14-19.471q-1.1756 0.88172-3.086 1.3226-1.9104 0.36738-4.0412 0.66129-2.0574 0.22043-4.1882 0.58781-2.1308 0.29391-3.8208 1.0287t-2.7921 2.1308q-1.0287 1.3226-1.0287 3.6738 0 1.543 0.58782 2.6452 0.66129 1.0287 1.6165 1.69 1.0287 0.66129 2.3512 0.9552 1.3226 0.29391 2.7921 0.29391 3.086 0 5.2903-0.80824 2.2043-0.88172 3.6004-2.1308 1.3961-1.3226 2.0574-2.7921 0.66129-1.543 0.66129-2.8656z"/>
   <path d="m184.91 16.993v-11.389h-6.2455v11.389h-6.4659v5.5107h6.4659v24.174q0 2.6452 0.51434 4.2616 0.51433 1.6165 1.543 2.4982 1.1022 0.88172 2.7921 1.2491 1.7634 0.29391 4.1882 0.29391h4.776v-5.5107h-2.8656q-1.4695 0-2.4247-0.07348-0.88171-0.14695-1.396-0.51434t-0.73477-1.0287q-0.14695-0.66129-0.14695-1.7634v-23.586h7.5681v-5.5107z"/>
  </g>
 </g>
</svg>
